<mxfile host="app.diagrams.net" agent="Mozilla/5.0 (Windows NT 10.0; Win64; x64) AppleWebKit/537.36 (KHTML, like Gecko) Chrome/138.0.0.0 Safari/537.36" version="27.2.0">
  <diagram name="Page-1" id="YoJu-_RiEjxJxq6ZOQJG">
    <mxGraphModel>
      <root>
        <mxCell id="0" />
        <mxCell id="1" parent="0" />
        <mxCell id="2" value="SOC Management System" style="rounded=1;arcSize=20;strokeWidth=2" vertex="1" parent="1">
          <mxGeometry x="537" y="8" width="209" height="54" as="geometry" />
        </mxCell>
        <mxCell id="3" value="Users" style="whiteSpace=wrap;strokeWidth=2;" vertex="1" parent="1">
          <mxGeometry x="1075" y="152" width="98" height="54" as="geometry" />
        </mxCell>
        <mxCell id="4" value="Databases" style="whiteSpace=wrap;strokeWidth=2;" vertex="1" parent="1">
          <mxGeometry x="359" y="152" width="132" height="54" as="geometry" />
        </mxCell>
        <mxCell id="5" value="Authentication Services" style="whiteSpace=wrap;strokeWidth=2;" vertex="1" parent="1">
          <mxGeometry x="32" y="152" width="229" height="54" as="geometry" />
        </mxCell>
        <mxCell id="6" value="Monitoring Tools" style="whiteSpace=wrap;strokeWidth=2;" vertex="1" parent="1">
          <mxGeometry x="553" y="152" width="176" height="54" as="geometry" />
        </mxCell>
        <mxCell id="7" value="Security Services" style="whiteSpace=wrap;strokeWidth=2;" vertex="1" parent="1">
          <mxGeometry x="779" y="152" width="181" height="54" as="geometry" />
        </mxCell>
        <mxCell id="8" value="User credentials" style="curved=1;startArrow=none;endArrow=block;exitX=0;exitY=0.74;entryX=0.37;entryY=0;" edge="1" parent="1" source="2" target="5">
          <mxGeometry relative="1" as="geometry">
            <Array as="points">
              <mxPoint x="68" y="107" />
            </Array>
          </mxGeometry>
        </mxCell>
        <mxCell id="9" value="Authenticated token" style="curved=1;startArrow=none;endArrow=block;exitX=0.63;exitY=0;entryX=0;entryY=0.83;" edge="1" parent="1" source="5" target="2">
          <mxGeometry relative="1" as="geometry">
            <Array as="points">
              <mxPoint x="224" y="107" />
            </Array>
          </mxGeometry>
        </mxCell>
        <mxCell id="10" value="View alerts, compliance, vulnerabilities" style="curved=1;startArrow=none;endArrow=block;exitX=0.83;exitY=0;entryX=1;entryY=0.75;" edge="1" parent="1" source="3" target="2">
          <mxGeometry relative="1" as="geometry">
            <Array as="points">
              <mxPoint x="1209" y="107" />
            </Array>
          </mxGeometry>
        </mxCell>
        <mxCell id="11" value="Retrieve data" style="curved=1;startArrow=none;endArrow=block;exitX=0.01;exitY=1;entryX=0.35;entryY=0;" edge="1" parent="1" source="2" target="4">
          <mxGeometry relative="1" as="geometry">
            <Array as="points">
              <mxPoint x="371" y="107" />
            </Array>
          </mxGeometry>
        </mxCell>
        <mxCell id="12" value="Retrieve data" style="curved=1;startArrow=none;endArrow=block;exitX=0.4;exitY=1;entryX=0.39;entryY=0;" edge="1" parent="1" source="2" target="6">
          <mxGeometry relative="1" as="geometry">
            <Array as="points">
              <mxPoint x="587" y="107" />
            </Array>
          </mxGeometry>
        </mxCell>
        <mxCell id="13" value="Retrieve data" style="curved=1;startArrow=none;endArrow=block;exitX=0.8;exitY=1;entryX=0.38;entryY=0;" edge="1" parent="1" source="2" target="7">
          <mxGeometry relative="1" as="geometry">
            <Array as="points">
              <mxPoint x="810" y="107" />
            </Array>
          </mxGeometry>
        </mxCell>
        <mxCell id="14" value="Responses" style="curved=1;startArrow=none;endArrow=block;exitX=0.65;exitY=0;entryX=0.21;entryY=1;" edge="1" parent="1" source="4" target="2">
          <mxGeometry relative="1" as="geometry">
            <Array as="points">
              <mxPoint x="479" y="107" />
            </Array>
          </mxGeometry>
        </mxCell>
        <mxCell id="15" value="Responses" style="curved=1;startArrow=none;endArrow=block;exitX=0.63;exitY=0;entryX=0.61;entryY=1;" edge="1" parent="1" source="6" target="2">
          <mxGeometry relative="1" as="geometry">
            <Array as="points">
              <mxPoint x="702" y="107" />
            </Array>
          </mxGeometry>
        </mxCell>
        <mxCell id="16" value="Responses" style="curved=1;startArrow=none;endArrow=block;exitX=0.61;exitY=0;entryX=1;entryY=0.99;" edge="1" parent="1" source="7" target="2">
          <mxGeometry relative="1" as="geometry">
            <Array as="points">
              <mxPoint x="924" y="107" />
            </Array>
          </mxGeometry>
        </mxCell>
        <mxCell id="17" value="Dashboard data" style="curved=1;startArrow=none;endArrow=block;exitX=1;exitY=0.85;entryX=0.18;entryY=0;" edge="1" parent="1" source="2" target="3">
          <mxGeometry relative="1" as="geometry">
            <Array as="points">
              <mxPoint x="1040" y="107" />
            </Array>
          </mxGeometry>
        </mxCell>
      </root>
    </mxGraphModel>
  </diagram>
</mxfile>
